<?xml version="1.0" standalone="no"?>
<!DOCTYPE svg PUBLIC "-//W3C//DTD SVG 20010904//EN"
 "http://www.w3.org/TR/2001/REC-SVG-20010904/DTD/svg10.dtd">
<svg version="1.0" xmlns="http://www.w3.org/2000/svg"
 width="1280.000000pt" height="303.000000pt" viewBox="0 0 1280.000000 303.000000"
 preserveAspectRatio="xMidYMid meet">

<g transform="translate(0.000000,303.000000) scale(0.100000,-0.100000)"
fill="#000000" stroke="none">
<path d="M1061 2933 c-8 -3 -24 -16 -35 -29 -14 -16 -40 -27 -76 -34 -81 -15
-295 -88 -374 -127 -84 -42 -187 -118 -243 -181 -35 -38 -43 -54 -43 -85 0
-21 -11 -63 -25 -94 -14 -30 -31 -78 -37 -106 -6 -31 -20 -61 -34 -74 -13 -12
-24 -31 -24 -42 0 -11 -23 -52 -50 -90 -72 -97 -87 -161 -53 -224 12 -23 18
-59 19 -127 3 -168 18 -271 46 -320 14 -25 31 -72 38 -104 13 -64 53 -116 88
-116 22 0 59 -29 63 -50 2 -8 -5 -28 -16 -43 -14 -22 -18 -45 -17 -94 1 -35
-3 -74 -10 -86 -15 -29 -22 -157 -8 -157 5 0 10 6 10 14 0 7 7 20 16 27 14 11
16 10 13 -11 -2 -14 3 -56 10 -94 11 -56 24 -83 66 -142 33 -45 56 -89 60
-113 8 -50 31 -82 43 -63 7 10 15 5 31 -22 24 -39 46 -49 36 -16 -10 32 11 23
25 -10 7 -17 22 -43 34 -58 l21 -26 5 29 5 30 35 -53 c26 -41 36 -49 40 -36 5
14 10 12 28 -12 l21 -29 1 25 1 25 20 -28 c23 -30 39 -35 39 -12 0 22 16 18
37 -8 21 -26 73 -31 73 -7 1 15 28 -11 78 -76 l23 -29 -6 28 c-4 22 -3 27 7
23 7 -3 20 -9 29 -12 9 -3 22 -18 29 -32 l12 -26 19 24 c10 14 19 19 19 11 0
-8 7 -11 20 -8 15 4 20 0 20 -16 0 -20 2 -20 28 8 26 29 27 29 30 7 5 -34 29
-26 42 14 9 25 15 32 20 23 7 -10 11 -10 24 0 12 10 15 8 18 -15 3 -26 5 -24
43 32 28 42 40 54 43 41 4 -20 13 -22 31 -5 11 11 14 10 18 0 3 -9 12 -5 28
13 27 28 45 32 45 10 0 -21 8 -19 35 13 l24 27 1 -30 1 -30 19 35 c12 22 19
28 20 18 0 -29 13 -20 43 27 32 51 53 59 42 18 -6 -27 -6 -27 14 -9 11 10 31
39 43 65 l23 46 3 -33 3 -34 34 53 c30 48 33 51 37 28 4 -23 5 -22 20 11 9 19
23 55 32 80 9 25 34 68 55 97 42 55 59 102 70 193 7 54 7 55 21 28 7 -16 17
-28 22 -28 14 0 6 117 -9 147 -10 17 -15 52 -14 92 1 47 -3 72 -19 98 -18 32
-19 36 -4 58 9 14 33 30 53 36 47 14 77 58 93 133 6 32 22 74 36 94 20 29 25
52 27 107 2 39 8 99 14 135 12 78 6 108 -49 222 -40 82 -40 82 -40 206 0 113
-2 124 -19 129 -14 3 -21 17 -26 50 -3 24 -20 77 -37 116 -17 40 -31 88 -30
107 1 29 -7 43 -46 83 -114 117 -216 182 -356 228 -121 39 -206 56 -370 73
-123 13 -137 16 -158 40 -23 25 -80 41 -107 29z m424 -108 l40 -14 -40 6 c-22
3 -49 9 -60 14 l-20 8 20 0 c11 0 38 -7 60 -14z m-370 -27 c4 -4 18 -3 30 2
16 6 25 5 29 -3 5 -9 7 -9 12 0 3 8 13 9 27 4 12 -5 41 -9 65 -9 78 -1 158
-36 263 -113 97 -72 115 -123 121 -344 3 -135 2 -140 -17 -137 -11 2 -78 27
-150 57 -198 82 -246 94 -480 123 -56 7 -60 9 -66 37 l-7 30 -1 -32 -1 -33
-72 0 c-89 0 -232 -22 -319 -50 -80 -25 -89 -25 -89 0 0 11 -5 20 -11 20 -8 0
-10 22 -7 71 3 41 2 65 -3 58 -18 -28 -9 11 11 50 40 80 150 152 336 220 69
25 120 36 145 32 4 -1 0 -34 -7 -73 -8 -40 -13 -120 -13 -178 l2 -105 8 89
c10 104 18 122 20 45 1 -30 3 -43 5 -29 28 190 31 199 65 251 14 20 26 25 58
25 21 -1 42 -4 46 -8z m538 -10 c16 -12 16 -14 -1 -24 -15 -10 -20 -7 -29 12
-13 28 1 33 30 12z m204 -250 c24 -16 68 -51 99 -78 35 -31 64 -49 78 -47 16
2 27 -10 47 -53 35 -72 44 -131 26 -167 -20 -39 -29 -188 -16 -238 6 -22 34
-78 63 -124 48 -79 51 -88 55 -163 2 -43 -1 -78 -5 -78 -5 1 -22 28 -38 62
-37 77 -71 117 -113 134 -43 18 -63 18 -63 -2 0 -8 -4 -13 -9 -9 -6 3 -8 15
-5 28 8 40 4 286 -6 380 -20 175 -55 260 -144 346 -20 19 -36 39 -36 44 0 9 8
5 67 -35z m203 8 c0 -3 -4 -8 -10 -11 -5 -3 -10 -1 -10 4 0 6 5 11 10 11 6 0
10 -2 10 -4z m-240 -51 c19 -19 32 -35 29 -35 -3 0 -20 16 -39 35 -19 19 -32
35 -29 35 3 0 20 -16 39 -35z m67 -82 c31 -56 54 -155 59 -257 2 -50 6 -115 9
-143 2 -29 1 -53 -3 -53 -4 0 -28 20 -53 43 -26 24 -59 53 -75 66 -26 20 -26
21 -4 10 14 -7 44 -28 68 -47 25 -21 42 -29 42 -21 0 43 -31 319 -38 345 -5
16 -17 45 -26 62 -23 45 -4 40 21 -5z m-1531 -70 c-8 -84 -14 -96 -59 -120
l-30 -15 5 44 c7 58 56 168 76 168 12 0 14 -12 8 -77z m874 -23 c69 -18 130
-36 135 -42 11 -10 -30 -3 -75 14 -57 22 -241 48 -332 48 -220 0 -403 -38
-563 -117 -176 -87 -254 -166 -302 -308 l-13 -40 4 40 c16 169 222 328 526
406 191 49 421 48 620 -1z m260 -90 c30 -16 52 -29 48 -30 -9 0 -89 36 -108
49 -30 21 6 9 60 -19z m-1260 -44 c0 -2 -7 -9 -15 -16 -12 -10 -15 -10 -15 4
0 9 7 16 15 16 8 0 15 -2 15 -4z m1408 -20 c26 -13 58 -34 72 -46 16 -14 1 -8
-45 16 -70 37 -95 54 -82 54 4 0 29 -11 55 -24z m550 -86 c-2 -85 -7 -113 -18
-120 -13 -9 -13 -10 0 -10 19 0 95 -153 110 -220 9 -38 6 -62 -19 -160 -25
-95 -30 -107 -30 -72 -1 24 6 87 15 142 l17 98 -33 59 c-61 106 -100 187 -100
205 0 10 -4 18 -10 18 -13 0 -13 126 0 151 7 12 21 19 41 19 l31 0 -4 -110z
m-743 0 c39 -7 28 -8 -50 -5 -55 2 -131 0 -170 -5 -38 -6 -117 -15 -175 -20
-84 -9 -112 -16 -141 -35 -41 -29 -69 -34 -49 -10 10 12 10 15 -2 15 -8 0 -18
-4 -24 -10 -5 -5 -43 -21 -84 -36 -40 -14 -83 -32 -94 -40 -23 -15 -56 -19
-56 -5 0 12 132 65 235 95 91 26 227 52 300 59 78 7 261 5 310 -3z m202 -72
c1 -14 -3 -15 -28 -6 -37 13 -37 23 -1 23 19 0 29 -5 29 -17z m83 -35 c0 -7
-4 -13 -8 -13 -17 0 -29 22 -24 42 5 20 6 20 19 3 7 -11 13 -25 13 -32z m-190
17 c146 -32 264 -82 300 -125 12 -14 10 -15 -14 -6 -31 12 -31 14 -6 -40 43
-96 17 -88 -36 11 -28 52 -45 72 -68 80 -30 10 -51 5 -22 -6 9 -3 16 -12 16
-20 0 -19 -29 -18 -36 1 -4 8 -16 15 -28 15 -11 0 -28 5 -36 10 -11 7 -5 10
25 10 40 1 40 1 14 15 -21 11 -148 47 -244 68 -11 3 -4 5 15 6 19 0 73 -8 120
-19z m-660 -19 c0 -5 -13 -19 -30 -31 -34 -24 -40 -14 -10 18 22 23 40 29 40
13z m510 -11 c20 -6 14 -8 -28 -9 -33 -1 -51 3 -47 9 7 12 39 12 75 0z m169
-24 c9 -11 9 -16 0 -21 -6 -4 -14 -3 -18 3 -4 6 -18 15 -31 21 -25 10 -24 10
6 10 17 1 37 -5 43 -13z m-837 -22 c-10 -7 -36 -39 -56 -72 -44 -68 -68 -87
-94 -73 -21 11 -28 7 -65 -37 -36 -45 -34 -27 3 22 35 47 30 64 -11 36 -16
-12 -29 -17 -29 -11 0 14 78 79 125 104 80 43 179 68 127 31z m652 6 c14 -5
26 -16 26 -25 0 -18 -4 -19 -30 -2 -17 10 -22 9 -29 -2 -5 -7 -14 -11 -20 -7
-7 5 -7 13 2 26 14 23 17 23 51 10z m517 -7 c5 -5 -1 -9 -16 -8 -13 0 -29 5
-36 12 -9 9 -5 11 15 9 15 -2 32 -8 37 -13z m-1006 -5 c-27 -6 -65 -22 -83
-35 -38 -29 -48 -27 -26 5 17 25 62 40 119 40 l40 0 -50 -10z m562 -4 c-3 -3
-12 -4 -19 -1 -8 3 -5 6 6 6 11 1 17 -2 13 -5z m-427 -14 c-8 -5 -31 -10 -50
-10 -26 0 -31 3 -20 10 8 5 31 10 50 10 26 0 31 -3 20 -10z m586 -4 c35 -5 22
-15 -15 -12 -23 2 -48 9 -54 16 -9 9 -5 11 22 5 18 -4 40 -8 47 -9z m-481 -37
c13 -13 94 -11 154 3 38 9 54 9 63 0 11 -11 8 -13 -69 -42 -25 -9 -35 -22 -50
-63 -23 -65 -43 -67 -60 -7 -16 54 -27 65 -77 82 -22 7 -41 18 -43 25 -8 22
58 24 82 2z m550 11 c4 -6 16 -8 28 -4 21 6 21 5 6 -11 -16 -16 -18 -16 -38 4
-12 12 -17 21 -12 21 6 0 13 -5 16 -10z m-75 -10 c0 -5 -7 -7 -15 -4 -8 4 -15
8 -15 10 0 2 7 4 15 4 8 0 15 -4 15 -10z m141 -35 c-1 -15 -24 -12 -29 3 -3 9
2 13 12 10 10 -1 17 -7 17 -13z m-886 -16 c4 -6 19 -7 38 -3 52 12 144 7 174
-9 15 -9 36 -18 46 -21 18 -6 44 -52 35 -62 -3 -3 -32 2 -64 11 -33 9 -101 18
-152 22 -51 3 -95 10 -98 14 -3 5 -13 9 -23 9 -10 0 -24 6 -31 14 -6 8 -19 12
-28 10 -14 -5 -13 -2 2 10 22 18 91 22 101 5z m783 2 c11 -5 -2 -21 -18 -21
-20 0 -27 -14 -12 -23 4 -2 1 -2 -7 0 -7 2 -19 -1 -25 -6 -6 -5 -54 -11 -106
-13 -52 -2 -125 -13 -162 -23 -37 -11 -70 -16 -75 -12 -12 12 20 61 42 66 11
2 31 11 45 22 22 16 42 18 170 15 80 -2 146 -4 148 -5z m-1508 -73 c0 -29 7
-91 15 -138 23 -129 18 -160 -10 -61 -32 113 -38 155 -30 207 9 61 25 55 25
-8z m1897 46 c-3 -3 -12 -4 -19 -1 -8 3 -5 6 6 6 11 1 17 -2 13 -5z m-360 -20
c-3 -3 -12 -4 -19 -1 -8 3 -5 6 6 6 11 1 17 -2 13 -5z m-1420 -28 c3 -2 -10
-33 -28 -67 -27 -54 -33 -61 -40 -44 -10 26 -11 109 -2 119 7 7 62 1 70 -8z
m617 -16 c104 -10 201 -44 212 -75 4 -9 -4 -26 -19 -41 -21 -21 -32 -25 -57
-19 -17 4 -34 13 -37 21 -12 32 -78 -3 -71 -37 2 -9 -7 -15 -24 -17 -22 -3
-30 3 -44 30 -10 18 -20 47 -24 63 -4 21 -12 30 -25 30 -16 0 -21 -9 -25 -39
-6 -43 -20 -55 -40 -31 -17 21 -52 19 -83 -5 -33 -27 -37 -25 -37 11 0 41 27
86 59 98 59 22 83 24 215 11z m841 0 c44 -10 85 -49 85 -81 0 -32 -39 -60 -75
-52 -16 3 -35 13 -42 22 -11 15 -14 15 -40 -1 -19 -12 -27 -24 -26 -38 3 -18
-2 -21 -25 -18 -28 3 -55 44 -67 101 -4 18 -12 27 -24 27 -21 0 -31 -19 -31
-61 0 -32 -11 -37 -30 -14 -19 23 -63 18 -90 -10 -31 -33 -40 -32 -40 9 0 65
70 102 218 115 124 12 142 12 187 1z m427 -34 c25 -42 58 -125 58 -146 0 -17
-59 -70 -78 -70 -16 0 -20 10 -26 62 -3 36 -16 79 -31 106 -34 60 -33 75 5 70
20 -3 30 0 30 9 0 24 15 13 42 -31z m-1773 18 c2 -2 -7 -28 -21 -56 -26 -53
-43 -118 -39 -150 1 -9 -7 -21 -18 -27 -16 -9 -24 -6 -46 21 -21 25 -28 29
-36 17 -22 -36 6 73 36 138 l33 71 44 -5 c23 -3 45 -7 47 -9z m1636 -4 c3 -5
-1 -10 -9 -10 -9 0 -16 5 -16 10 0 6 4 10 9 10 6 0 13 -4 16 -10z m-1632 -105
c-5 -13 -23 -22 -23 -11 0 15 14 35 21 31 4 -3 6 -12 2 -20z m174 -35 c4 -31
3 -41 -5 -36 -7 4 -12 20 -12 36 0 16 -5 32 -10 35 -6 4 -7 11 -4 17 11 17 25
-7 31 -52z m1336 23 c-7 -49 -23 -67 -23 -26 0 36 9 63 20 63 5 0 6 -17 3 -37z
m173 0 c-4 -4 -11 -1 -16 7 -16 25 -11 35 7 17 9 -9 13 -20 9 -24z m-802 -43
c-16 -15 -104 -17 -104 -2 0 4 25 8 56 9 32 1 53 -2 48 -7z m36 -41 c0 -5 -39
-9 -87 -9 -102 0 -104 17 -3 22 71 3 90 1 90 -13z m917 -46 c-3 -10 -5 -2 -5
17 0 19 2 27 5 18 2 -10 2 -26 0 -35z m-1746 -46 c-6 -15 -15 -27 -21 -27 -14
0 -13 6 7 48 20 41 31 23 14 -21z m685 32 c40 -24 51 -58 34 -100 -15 -34 -4
-53 26 -47 16 3 19 11 16 59 -3 51 -1 58 24 78 62 49 101 41 177 -36 87 -88
95 -152 27 -210 -39 -32 -31 -42 9 -13 17 11 35 19 40 16 5 -3 25 -55 45 -116
33 -99 36 -113 26 -151 -10 -38 -13 -40 -38 -34 l-27 7 28 -22 c32 -25 76 -89
101 -146 l18 -41 -32 -74 c-36 -82 -66 -129 -82 -129 -6 0 -3 11 6 25 21 32
22 52 1 35 -8 -7 -15 -9 -15 -4 0 5 -4 4 -8 -3 -4 -7 -22 -14 -40 -18 -17 -3
-48 -14 -68 -25 -19 -11 -39 -18 -45 -15 -5 4 -9 2 -9 -2 0 -13 -131 -42 -170
-38 -19 2 -55 11 -80 20 -48 17 -101 33 -194 59 -32 9 -63 19 -67 22 -15 9
-10 -6 12 -37 15 -21 16 -27 5 -23 -22 8 -39 38 -86 149 l-43 100 9 90 c5 49
9 124 10 165 1 100 -1 93 44 140 22 23 40 49 40 59 0 20 27 61 41 61 5 0 3
-10 -5 -22 -7 -13 -19 -46 -25 -74 -7 -27 -21 -63 -31 -79 l-19 -29 -10 24
c-19 52 -24 -11 -7 -98 16 -84 16 -86 -5 -121 -26 -44 -30 -108 -8 -124 8 -7
21 -21 28 -32 11 -17 12 -17 7 -2 -3 10 -6 25 -6 33 0 9 -4 12 -10 9 -18 -11
-10 29 12 65 21 32 23 33 26 13 5 -32 26 -28 58 10 l27 32 -26 9 c-60 22 -67
117 -18 249 18 48 38 87 45 87 6 0 24 -11 39 -25 39 -37 33 -13 -8 31 -61 64
-46 124 50 213 64 58 96 64 151 30z m814 -8 c7 -17 10 -36 7 -43 -4 -11 -37
49 -37 67 0 16 19 1 30 -24z m-1625 9 c-3 -5 -13 -10 -21 -10 -8 0 -12 5 -9
10 3 6 13 10 21 10 8 0 12 -4 9 -10z m1770 0 c3 -5 -3 -10 -14 -10 -11 0 -23
5 -26 10 -3 6 3 10 14 10 11 0 23 -4 26 -10z m-1908 -62 c-2 -13 -4 -3 -4 22
0 25 2 35 4 23 2 -13 2 -33 0 -45z m274 -27 c-22 -42 -28 -87 -11 -76 14 8 13
-18 -2 -50 -17 -38 -28 -30 -28 20 0 45 24 129 43 154 20 24 19 -6 -2 -48z
m1495 -34 c26 -97 13 -152 -21 -87 -20 39 -20 56 1 39 15 -12 16 -10 9 21 -4
19 -14 50 -21 69 -19 45 -18 61 2 32 9 -12 22 -46 30 -74z m-1116 -7 c0 -5
-10 -10 -22 -10 -19 0 -20 2 -8 10 19 13 30 13 30 0z m730 0 c13 -8 13 -10 -2
-10 -9 0 -20 5 -23 10 -8 13 5 13 25 0z m-876 -35 c-4 -8 -11 -15 -16 -15 -6
0 -5 6 2 15 7 8 14 15 16 15 2 0 1 -7 -2 -15z m1011 4 c11 -17 -1 -21 -15 -4
-8 9 -8 15 -2 15 6 0 14 -5 17 -11z m459 -43 c-17 -27 -54 -36 -54 -13 0 14
64 58 68 46 2 -4 -4 -19 -14 -33z m-1902 7 c18 -16 25 -43 10 -43 -10 0 -34
20 -51 43 -12 15 -11 17 4 17 10 0 27 -7 37 -17z m255 -37 c-40 -34 -49 -53
-16 -36 30 17 34 5 9 -29 -22 -33 -20 -37 9 -21 16 8 19 4 25 -39 5 -40 10
-48 24 -44 15 3 17 -4 17 -56 0 -58 8 -82 22 -67 4 4 9 38 11 77 2 38 8 69 13
69 16 0 21 -47 9 -86 -6 -22 -15 -68 -20 -103 -4 -35 -14 -68 -20 -75 -6 -6
-11 -7 -10 -1 5 22 -1 55 -8 55 -5 0 -14 -10 -20 -22 -7 -17 -9 0 -5 72 4 88
3 93 -11 70 -15 -25 -15 -25 -16 18 0 23 -4 42 -9 42 -4 0 -6 12 -4 28 4 25 2
24 -22 -13 l-27 -40 6 48 c3 28 2 47 -4 47 -11 0 -13 81 -4 115 4 16 14 21 47
21 l42 2 -38 -32z m1039 -34 c4 -20 14 -36 23 -39 9 -2 27 -19 40 -38 19 -28
22 -43 18 -82 -3 -26 2 -94 11 -149 12 -78 13 -107 5 -125 -10 -21 -12 -17
-12 34 -1 43 -5 57 -16 57 -21 0 -29 60 -16 120 14 64 14 117 1 125 -5 3 -10
-4 -10 -16 0 -38 -28 -2 -46 60 -9 31 -23 68 -30 83 -19 36 -17 44 6 23 11
-10 23 -33 26 -53z m314 58 c9 -6 17 -5 22 3 5 9 10 9 19 0 17 -17 25 -128 10
-137 -6 -4 -11 -24 -11 -44 l0 -37 -20 33 c-24 40 -28 40 -22 2 3 -18 0 -30
-7 -30 -7 0 -9 -14 -6 -42 l6 -43 -16 28 c-9 15 -17 27 -20 27 -5 0 4 -130 11
-152 7 -22 -12 -24 -20 -3 -9 25 -26 17 -26 -12 0 -22 -2 -25 -10 -13 -5 8
-10 32 -10 53 0 21 -7 54 -15 74 -17 40 -19 91 -5 113 12 18 11 21 13 -60 2
-36 6 -71 11 -78 15 -25 26 1 26 64 0 61 1 65 20 59 21 -7 26 10 22 73 -1 19
2 20 18 12 29 -16 32 -12 15 20 -20 38 -19 43 4 30 36 -19 35 -10 -4 30 -37
37 -39 52 -5 30z m-1148 -32 c-8 -8 -9 -4 -5 13 4 13 8 18 11 10 2 -7 -1 -18
-6 -23z m951 8 c4 -10 1 -13 -9 -9 -7 3 -14 9 -14 14 0 14 17 10 23 -5z
m-1302 -117 c-9 -23 -10 -23 -10 -2 -1 12 2 30 6 40 6 15 8 15 11 2 1 -8 -2
-26 -7 -40z m214 21 c-4 -12 -9 -19 -12 -17 -3 3 -2 15 2 27 4 12 9 19 12 17
3 -3 2 -15 -2 -27z m1435 -19 c0 -32 -6 -24 -14 19 -4 25 -3 31 4 20 5 -8 10
-26 10 -39z m-213 7 c-3 -8 -6 -5 -6 6 -1 11 2 17 5 13 3 -3 4 -12 1 -19z
m-1386 -81 c-13 -13 -15 1 -4 30 7 17 8 17 11 -1 2 -10 -1 -23 -7 -29z m1546
11 c-3 -7 -5 -2 -5 12 0 14 2 19 5 13 2 -7 2 -19 0 -25z m-1582 -171 c14 17
14 17 15 -3 0 -28 -35 -106 -43 -97 -9 9 -9 107 1 130 5 14 8 11 10 -15 3 -31
4 -33 17 -15z m1649 -2 c4 -19 4 -51 0 -72 l-7 -36 -18 34 c-18 34 -27 98 -10
71 7 -11 9 -11 14 2 4 9 3 23 0 33 -4 10 -2 14 4 10 6 -4 14 -23 17 -42z
m-1370 -143 c-6 -64 -5 -72 9 -66 15 5 15 2 1 -48 -9 -29 -21 -57 -26 -63 -8
-7 -9 -4 -5 8 4 10 4 58 0 107 -5 71 -9 88 -19 79 -8 -6 -5 13 9 52 20 60 21
61 29 33 4 -16 5 -62 2 -102z m1089 75 c19 -60 22 -80 7 -57 -7 11 -10 3 -10
-29 0 -24 -5 -61 -11 -81 -9 -28 -9 -47 -1 -69 6 -18 7 -29 3 -27 -15 10 -33
93 -25 117 4 13 7 63 5 112 -2 48 1 87 5 87 5 0 17 -24 27 -53z m-1346 -59
c-3 -8 -6 -5 -6 6 -1 11 2 17 5 13 3 -3 4 -12 1 -19z m1558 -119 c-14 -21 -27
-39 -29 -39 -9 0 16 95 29 110 8 9 16 25 17 36 1 10 3 -1 5 -25 3 -34 -1 -51
-22 -82z m-1522 6 c16 -60 16 -60 -3 -35 -30 39 -53 97 -46 116 6 16 8 16 20
-2 7 -10 20 -46 29 -79z m1247 -73 c0 -21 -7 -47 -16 -58 -15 -18 -15 -18 -9
11 3 17 9 42 12 58 8 38 13 34 13 -11z m-943 -33 c3 -24 12 -57 21 -73 12 -25
16 -27 24 -13 13 24 28 21 28 -5 0 -13 5 -30 10 -38 8 -12 10 -9 10 13 0 32
16 36 25 6 4 -11 13 -18 20 -15 16 6 25 -15 25 -57 0 -24 -3 -28 -10 -17 -8
13 -11 12 -24 -5 -15 -20 -15 -19 -16 5 -1 42 -16 56 -23 20 -9 -41 -27 -29
-27 18 -1 33 -2 35 -14 19 -12 -15 -16 -9 -37 57 -20 62 -25 71 -36 57 -10
-14 -13 -12 -23 13 -6 16 -9 39 -7 50 3 20 4 19 15 -4 l11 -25 0 30 c1 43 21
17 28 -36z m902 -15 c-16 -41 -23 -12 -8 33 10 29 14 33 17 17 1 -11 -2 -34
-9 -50z m272 20 c-5 -21 -9 -30 -10 -19 -1 24 10 67 15 62 3 -2 0 -22 -5 -43z
m-1441 -9 c0 -5 -5 -3 -10 5 -5 8 -10 20 -10 25 0 6 5 3 10 -5 5 -8 10 -19 10
-25z m1135 -110 c-18 -42 -31 -38 -41 15 -6 29 -4 33 7 23 18 -18 29 -16 29 4
0 12 3 14 10 7 7 -7 5 -23 -5 -49z m-70 5 c3 -11 11 -20 16 -20 5 0 9 -19 9
-42 l-1 -43 -19 35 -19 35 -1 -32 c0 -33 -14 -44 -23 -20 -4 9 -8 8 -16 -3
-17 -24 -23 -5 -15 47 4 26 9 42 11 36 7 -21 33 -15 33 7 0 11 4 20 9 20 5 0
13 -9 16 -20z m-215 -18 c-46 -22 -69 -27 -135 -27 -59 0 -88 5 -110 18 l-30
18 30 -8 c49 -13 196 -7 240 9 63 24 65 19 5 -10z m-314 -135 c9 -40 -2 -44
-21 -8 -20 40 -28 39 -21 -1 5 -33 5 -33 -5 2 -6 19 -15 43 -20 52 -5 10 -9
37 -9 60 l1 43 34 -60 c19 -33 37 -73 41 -88z m419 39 c-9 -7 -16 -19 -15 -27
1 -7 1 -23 0 -34 -2 -14 -4 -12 -9 10 l-7 30 -22 -35 -22 -35 6 35 c8 42 38
104 62 128 16 16 17 15 20 -21 2 -27 -2 -43 -13 -51z m-85 -11 c-7 -20 -14
-34 -17 -31 -3 2 0 21 7 41 7 20 14 34 17 31 3 -2 0 -21 -7 -41z m-301 -7 c6
-18 7 -28 2 -23 -10 12 -25 55 -18 55 3 0 10 -15 16 -32z m51 -14 c0 -11 7
-29 15 -40 13 -18 14 -17 15 18 0 20 5 40 10 43 6 4 10 -8 10 -29 0 -41 11
-46 34 -13 14 19 15 19 9 2 -3 -11 -12 -29 -20 -40 -7 -11 -13 -29 -13 -40 -1
-17 -3 -16 -16 8 -20 36 -28 34 -20 -5 5 -31 5 -32 -9 -13 -20 25 -35 81 -35
125 0 26 3 31 10 20 5 -8 10 -24 10 -36z m205 -11 c-4 -27 -14 -64 -23 -83
l-17 -35 -5 30 c-6 28 -7 29 -14 8 -10 -30 -26 -30 -26 0 0 30 28 127 29 102
1 -11 6 -27 11 -35 9 -13 11 -13 20 0 5 8 10 25 10 38 0 12 5 22 11 22 8 0 9
-15 4 -47z"/>
<path d="M1483 2604 c-4 -11 1 -22 12 -30 24 -18 35 -18 35 0 0 8 5 16 12 18
6 2 8 10 4 16 -11 18 -56 15 -63 -4z"/>
<path d="M1637 2418 c6 -73 11 -83 12 -23 0 28 -3 56 -8 63 -5 8 -6 -8 -4 -40z"/>
<path d="M921 2404 c0 -11 3 -14 6 -6 3 7 2 16 -1 19 -3 4 -6 -2 -5 -13z"/>
<path d="M2132 2050 c0 -14 2 -19 5 -12 2 6 2 18 0 25 -3 6 -5 1 -5 -13z"/>
<path d="M620 1865 c0 -8 -7 -15 -15 -15 -8 0 -19 -9 -25 -20 -8 -14 -8 -20 0
-20 21 0 50 21 50 35 0 8 5 15 10 15 6 0 10 5 10 10 0 6 -7 10 -15 10 -8 0
-15 -7 -15 -15z"/>
<path d="M1191 1774 c0 -11 3 -14 6 -6 3 7 2 16 -1 19 -3 4 -6 -2 -5 -13z"/>
<path d="M1385 1760 c-3 -5 1 -10 9 -10 9 0 16 5 16 10 0 6 -4 10 -9 10 -6 0
-13 -4 -16 -10z"/>
<path d="M1011 1359 c-50 -40 -71 -66 -71 -89 0 -7 8 -9 20 -5 16 5 20 2 20
-14 0 -16 6 -21 24 -21 33 0 73 -16 118 -47 30 -20 41 -23 52 -14 10 9 20 9
33 2 15 -7 29 -3 66 21 25 16 64 32 87 35 47 7 57 17 38 41 -12 16 -11 16 14
0 24 -16 27 -16 32 -1 6 16 -18 63 -32 63 -4 0 -25 16 -47 35 -22 19 -49 35
-61 35 -21 0 -54 -28 -54 -46 0 -5 -5 -26 -11 -46 -9 -35 -13 -38 -45 -38 -28
0 -36 5 -45 28 -6 15 -11 39 -11 54 -1 21 -8 30 -31 38 -41 14 -38 15 -96 -31z
m302 -8 c-12 -10 -26 -33 -31 -52 -9 -31 -10 -31 -11 -8 -1 28 33 79 52 79 7
-1 2 -9 -10 -19z m-209 -17 c9 -24 2 -26 -12 -4 -7 11 -8 20 -3 20 5 0 12 -7
15 -16z m110 -106 c-3 -4 -14 -8 -24 -8 -10 0 -21 4 -24 8 -3 5 8 9 24 9 16 0
27 -4 24 -9z"/>
<path d="M1346 1150 c-19 -6 -19 -7 -1 -13 20 -8 29 -4 24 11 -2 5 -13 6 -23
2z"/>
<path d="M930 925 c0 -6 7 -19 15 -29 8 -11 15 -28 15 -38 0 -10 5 -18 10 -18
6 0 4 16 -5 38 -17 38 -35 64 -35 47z"/>
<path d="M761 904 c0 -11 3 -14 6 -6 3 7 2 16 -1 19 -3 4 -6 -2 -5 -13z"/>
<path d="M1074 869 c-3 -6 -38 -26 -78 -46 -41 -20 -58 -32 -41 -28 22 4 26 3
15 -5 -8 -5 -29 -10 -47 -10 -40 0 -89 -39 -80 -63 10 -26 57 -21 132 13 78
35 89 37 55 9 -39 -32 -122 -69 -155 -69 -27 -1 -28 -2 -11 -12 15 -8 32 -7
73 7 29 10 58 24 64 32 6 7 18 13 27 13 20 0 -18 -29 -83 -64 -45 -24 -47 -26
-16 -20 38 7 123 43 131 55 3 5 39 25 80 45 72 35 75 35 163 30 101 -7 127 1
71 20 -75 26 -154 28 -214 5 -36 -14 -49 -16 -36 -6 11 8 39 22 62 31 40 15
50 15 131 0 117 -21 156 -19 68 4 -39 11 -106 19 -151 19 -72 1 -85 -2 -130
-29 -45 -28 -47 -29 -19 -4 48 42 88 54 174 54 95 0 227 -24 251 -45 21 -19
31 -19 23 1 -3 8 -28 26 -56 40 -67 32 -254 43 -332 19 -61 -18 -58 -18 -51 0
6 17 -9 21 -20 4z m6 -134 c-7 -9 -15 -13 -19 -10 -3 3 1 10 9 15 21 14 24 12
10 -5z"/>
<path d="M1165 674 c-4 -22 -2 -41 4 -47 8 -8 11 3 11 36 0 56 -5 60 -15 11z"/>
<path d="M1216 681 c-20 -22 -20 -42 0 -67 15 -18 15 -17 10 14 -4 24 -2 32 9
32 8 0 15 6 15 14 0 24 -16 27 -34 7z"/>
<path d="M1312 681 c2 -14 9 -26 16 -29 17 -5 15 10 -3 34 -15 18 -15 18 -13
-5z"/>
<path d="M1126 668 c-9 -13 -14 -17 -11 -10 9 17 -10 15 -29 -3 -11 -11 -17
-12 -22 -4 -5 9 -11 6 -21 -6 -15 -22 -17 -39 -3 -30 6 3 10 -2 10 -11 0 -16
1 -16 20 1 19 18 20 17 20 -3 0 -28 17 -28 25 -1 5 14 13 19 25 16 16 -4 18 0
13 32 -7 46 -7 46 -27 19z"/>
<path d="M1270 660 c0 -18 4 -29 10 -25 6 3 10 15 10 25 0 10 -4 22 -10 25 -6
4 -10 -7 -10 -25z"/>
<path d="M1375 670 c3 -5 11 -10 16 -10 6 0 7 5 4 10 -3 6 -11 10 -16 10 -6 0
-7 -4 -4 -10z"/>
<path d="M3963 2610 c-129 -27 -223 -120 -259 -255 -20 -72 -20 -1088 0 -1160
30 -115 101 -201 196 -236 114 -43 310 -34 393 18 91 55 136 117 163 218 20
72 20 1075 0 1156 -25 110 -110 211 -206 245 -53 18 -226 27 -287 14z m194
-246 c13 -8 31 -26 40 -41 17 -25 18 -67 18 -543 0 -561 1 -550 -57 -593 -32
-24 -99 -28 -144 -9 -18 8 -39 28 -50 50 -18 35 -19 67 -22 487 -4 525 -1 583
35 625 41 49 124 60 180 24z"/>
<path d="M10910 2611 c-97 -20 -183 -88 -224 -176 -54 -114 -59 -293 -12 -418
39 -104 86 -165 255 -335 180 -180 209 -225 218 -331 5 -58 2 -76 -16 -113
-24 -51 -53 -68 -116 -68 -97 0 -135 53 -135 187 0 75 -2 81 -22 87 -30 8
-143 7 -192 -1 l-39 -6 7 -103 c18 -285 136 -404 400 -404 175 0 294 78 347
226 32 88 32 274 0 364 -36 102 -74 153 -251 335 -123 125 -174 185 -194 226
-52 107 -44 238 16 280 57 41 159 23 190 -34 6 -12 13 -55 17 -96 l6 -76 120
0 120 0 -2 75 c-5 180 -67 296 -190 357 -48 23 -70 27 -162 29 -58 2 -122 0
-141 -5z"/>
<path d="M12229 2601 c-78 -25 -139 -72 -177 -134 -60 -101 -62 -118 -62 -689
0 -543 3 -584 46 -669 62 -123 172 -179 352 -179 118 0 205 32 268 97 79 81
104 172 104 380 l0 153 -120 0 -120 0 0 -131 c0 -150 -11 -200 -53 -235 -23
-19 -40 -24 -86 -24 -36 0 -65 6 -80 16 -50 36 -51 45 -51 597 l0 514 23 34
c51 76 172 72 224 -7 13 -20 18 -58 22 -153 l6 -126 115 0 115 0 3 124 c5 227
-53 351 -198 419 -74 36 -244 42 -331 13z"/>
<path d="M2427 2593 c-4 -3 -7 -372 -7 -820 l0 -813 23 -9 c12 -4 63 -8 112
-7 l90 1 3 548 c1 301 6 547 10 547 4 0 47 -245 97 -544 l89 -544 106 -7 c58
-3 113 -3 123 0 21 9 21 10 53 220 14 94 36 242 49 330 13 88 36 239 50 335
15 96 30 191 35 210 4 20 8 -212 9 -527 l1 -561 94 -7 c51 -4 107 -4 125 0
l31 7 0 824 0 824 -182 -2 -182 -3 -8 -45 c-5 -25 -19 -121 -33 -215 -13 -93
-38 -260 -55 -370 -17 -110 -40 -266 -52 -347 -29 -203 -33 -201 -68 37 -11
77 -27 176 -35 220 -8 44 -20 114 -25 155 -6 41 -17 111 -25 155 -8 44 -21
123 -29 175 -8 52 -20 128 -26 168 l-12 72 -177 0 c-98 0 -181 -3 -184 -7z"/>
<path d="M4640 1776 l0 -824 23 -6 c46 -12 194 -7 206 8 9 11 11 158 9 590 -2
316 0 569 4 562 6 -11 80 -276 188 -676 112 -415 128 -471 135 -478 9 -9 209
-16 241 -8 l24 6 0 825 0 825 -115 0 -115 0 0 -482 c0 -291 -4 -478 -9 -473
-5 6 -27 80 -50 165 -22 85 -61 232 -86 325 -26 94 -56 204 -66 245 -11 41
-24 89 -29 105 -5 17 -14 49 -20 73 l-11 42 -164 0 -165 0 0 -824z"/>
<path d="M5660 1776 l0 -823 81 -7 c44 -4 102 -4 130 0 l49 7 0 254 c0 273 -2
263 58 357 l24 39 54 -144 c30 -79 68 -178 84 -219 16 -41 47 -122 69 -179 22
-57 42 -106 45 -109 3 -3 60 -7 126 -10 98 -4 121 -2 125 10 6 15 -48 160
-195 528 -45 113 -97 246 -116 296 l-34 91 175 358 c96 196 175 361 175 366 0
5 -57 9 -126 9 l-125 0 -61 -127 c-33 -71 -87 -184 -120 -253 -33 -69 -78
-165 -100 -215 -22 -49 -44 -94 -49 -99 -5 -6 -9 139 -9 342 l0 352 -130 0
-130 0 0 -824z"/>
<path d="M6640 1776 l0 -824 28 -5 c35 -7 634 -7 661 0 20 5 21 12 21 119 l0
114 -225 0 -225 0 0 245 0 245 178 2 177 3 0 115 0 115 -155 1 c-85 0 -165 1
-178 2 l-22 2 2 228 3 227 223 3 222 2 0 115 0 115 -355 0 -355 0 0 -824z"/>
<path d="M7430 2593 c0 -8 51 -185 68 -238 6 -16 31 -100 56 -185 25 -85 79
-269 121 -409 l75 -253 0 -267 c0 -146 4 -272 8 -278 6 -9 46 -14 128 -15
l119 -3 5 280 5 280 37 120 c37 120 59 195 124 419 19 66 64 215 99 331 36
117 65 215 65 219 0 3 -56 6 -124 6 l-124 0 -31 -122 c-17 -68 -49 -190 -71
-273 -22 -82 -49 -188 -61 -235 -12 -47 -25 -89 -30 -94 -9 -10 -31 63 -99
329 -28 110 -62 241 -75 290 -14 50 -25 93 -25 98 0 4 -61 7 -135 7 -74 0
-135 -3 -135 -7z"/>
<path d="M8452 1773 l3 -828 105 0 105 0 5 547 c3 300 8 549 11 553 4 3 10
-20 14 -52 3 -32 13 -96 21 -143 9 -47 19 -107 23 -135 40 -267 128 -762 136
-767 17 -13 223 -8 233 5 5 7 14 50 21 97 7 47 24 157 37 245 14 88 37 248 54
355 16 107 36 244 45 305 9 60 18 112 21 114 2 2 4 -248 4 -556 0 -440 3 -562
13 -565 6 -3 62 -4 122 -4 l110 1 3 828 2 827 -180 0 c-178 0 -180 0 -185 -22
-6 -30 -28 -172 -70 -453 -78 -531 -97 -650 -104 -658 -8 -7 -19 56 -96 538
-20 121 -50 304 -67 408 l-32 187 -178 0 -178 0 2 -827z"/>
<path d="M9720 1922 c0 -736 1 -745 56 -840 31 -53 111 -117 167 -134 24 -8
94 -13 167 -13 114 0 130 2 180 26 62 29 122 85 151 141 48 93 49 109 49 825
l0 673 -120 0 -119 0 -3 -667 c-3 -619 -4 -671 -21 -704 -40 -81 -174 -89
-224 -13 -17 26 -18 71 -23 704 l-5 675 -127 3 -128 3 0 -679z"/>
<path d="M11560 1776 c0 -742 2 -824 16 -830 20 -8 208 -8 228 0 14 6 16 88
16 830 l0 824 -130 0 -130 0 0 -824z"/>
</g>
</svg>
